<svg width="22" height="20" viewBox="0 0 22 20" fill="none" xmlns="http://www.w3.org/2000/svg">
<path d="M21.5569 2.78716L21.5485 2.79653L14.3836 10.3289V16.1084C14.384 16.3833 14.3153 16.654 14.1837 16.8964C14.0521 17.1388 13.8617 17.3455 13.6293 17.4978L10.2442 19.7205C9.98906 19.8878 9.69261 19.9837 9.38644 19.9981C9.08027 20.0125 8.77589 19.9447 8.50578 19.8021C8.23567 19.6594 8.00998 19.4472 7.85279 19.1882C7.69559 18.9291 7.61281 18.6329 7.61326 18.3311V10.3289L0.448372 2.79653L0.43991 2.78716C0.219607 2.54845 0.0743933 2.25193 0.0218853 1.93357C-0.0306227 1.61521 0.0118313 1.28868 0.144097 0.993611C0.276363 0.698537 0.492756 0.447593 0.767027 0.271223C1.0413 0.094853 1.36166 0.000635504 1.68924 0H20.3076C20.6354 3.13494e-05 20.9562 0.0938118 21.231 0.269947C21.5057 0.446082 21.7226 0.69699 21.8553 0.992184C21.9879 1.28738 22.0306 1.61415 21.9782 1.9328C21.9258 2.25145 21.7806 2.54825 21.5601 2.78716H21.5569Z" fill="#FFF7F0"/>
</svg>
